<svg xmlns="http://www.w3.org/2000/svg" width="30" height="30" viewBox="0 0 216 146"><path fill="#3c3a37" d="M172.77 123.025l-27.945-27.945c6.735-9.722 10.104-20.559 10.104-32.508 0-7.767-1.508-15.195-4.523-22.283-3.014-7.089-7.088-13.199-12.221-18.332s-11.242-9.207-18.33-12.221c-7.09-3.015-14.518-4.522-22.285-4.522-7.767 0-15.195 1.507-22.283 4.522-7.089 3.014-13.199 7.088-18.332 12.221-5.133 5.133-9.207 11.244-12.221 18.332-3.015 7.089-4.522 14.516-4.522 22.283 0 7.767 1.507 15.193 4.522 22.283 3.014 7.088 7.088 13.197 12.221 18.33 5.133 5.134 11.244 9.207 18.332 12.222 7.089 3.015 14.516 4.522 22.283 4.522 11.951 0 22.787-3.369 32.509-10.104l27.945 27.863c1.955 2.064 4.397 3.096 7.332 3.096 2.824 0 5.27-1.032 7.332-3.096 2.064-2.063 3.096-4.508 3.096-7.332.001-2.877-1.003-5.322-3.014-7.331zm-49.413-34.668c-7.143 7.143-15.738 10.714-25.787 10.714-10.048 0-18.643-3.572-25.786-10.714-7.143-7.143-10.714-15.737-10.714-25.786 0-10.048 3.572-18.644 10.714-25.786 7.142-7.143 15.738-10.714 25.786-10.714 10.048 0 18.643 3.572 25.787 10.714 7.143 7.142 10.715 15.738 10.715 25.786 0 10.049-3.573 18.643-10.715 25.786z"/></svg>