<svg xmlns="http://www.w3.org/2000/svg" width="26" height="26" viewBox="0 0 48 48"><path fill="#646464" d="M15.731 11.633c-1.608 0-2.658 1.083-2.625 2.527-.033 1.378 1.018 2.494 2.593 2.494 1.641 0 2.691-1.116 2.691-2.494-.033-1.444-1.051-2.527-2.659-2.527zm-2.494 23.924h4.988v-17.049h-4.988v17.049zm18.475-16.809c-1.595 0-3.222-.329-4.956 2.36h-.099l-.087-2.599h-4.417c.065 1.411.074 3.518.074 5.52v11.529h4.988v-9.854c0-.46.065-.919.196-1.248.328-.919 1.149-1.871 2.527-1.871 1.805 0 2.527 1.411 2.527 3.479v9.494h4.988v-10.119c.002-4.726-2.46-6.691-5.741-6.691z"/></svg>