<svg xmlns="http://www.w3.org/2000/svg" width="20" height="20" viewBox="0 0 100 100"><path fill="#646464" d="M93.62 40.316c-3.437 6.591-10.616 8.598-17.633 12.281v14.227c0 2.006-2.585 13.676-12.443 13.676-9.86 0-13.114-5.646-13.114-7.985v-13.182c-.968-.233-1.921-.566-2.839-1.045v14.227c0 2.345-3.674 5.69-8.518 5.69-4.844 0-14.198-6.857-14.198-11.381v-15.404s-12.962-5.074-15.97-8.758c-3.01-3.686-4.513-5.191-3.676-7.362.804-2.103 10.526 6.023 16.205 7.362 5.685 1.34 15.539 2.011 19.718 1.845 4.179-.168 6.519 1.506 8.856 3.679l.421.361v-1.64c0-2.006 5.347-2.845 8.52-2.845h14.196s14.625-4.245 17.634-7.597c3.007-3.345 6.074-2.344 2.841 3.851zm-29.932-.899c5.489 0 9.939-4.457 9.939-9.959 0-5.501-4.45-9.958-9.939-9.958-5.487 0-9.938 4.457-9.938 9.958 0 5.502 4.451 9.959 9.938 9.959zm-26.19 0c5.489 0 9.939-4.457 9.939-9.959 0-5.501-4.45-9.958-9.939-9.958s-9.938 4.457-9.938 9.958c0 5.502 4.448 9.959 9.938 9.959z"/></svg>