<svg xmlns="http://www.w3.org/2000/svg" width="14" height="14" viewBox="0 0 24 24"><path d="M24 4.55c-.7 1-1.5 1.9-2.5 2.6v.6c0 6.5-4.9 14-14 14-2.7 0-5.3-.8-7.5-2.2.4.101.8.101 1.2.101 2.3 0 4.4-.801 6.1-2.103-2.2 0-4-1.397-4.6-3.397.3.1.6.1.9.1.5 0 .9-.1 1.3-.2-2.2-.401-3.9-2.401-3.9-4.801v-.1c.6.3 1.4.5 2.2.6-1.3-.9-2.2-2.4-2.2-4.1 0-.9.2-1.8.7-2.5 2.4 3 6 4.9 10.1 5.1-.1-.3-.1-.7-.1-1.1 0-2.7 2.2-4.9 4.899-4.9 1.4 0 2.7.6 3.7 1.6 1.101-.2 2.101-.6 3.101-1.2-.4 1.1-1.2 2.1-2.2 2.7 1-.1 1.9-.4 2.8-.8z" fill="#646464"/></svg>