<svg xmlns="http://www.w3.org/2000/svg" width="26" height="26" viewBox="282 372 48 48"><path fill="#646464" d="M306.726 408.252s5.185 0 10.157-.252 5.881-1.625 6.357-5.883c.629-5.634-.063-13.124-.063-13.124s-.063-4.595-5.287-4.783c-5.224-.189-11.156-.252-11.156-.252h-1.081s-5.932.063-11.156.252-5.287 4.783-5.287 4.783-.692 7.49-.063 13.124c.476 4.258 1.385 5.632 6.357 5.883 4.972.252 10.157.252 10.157.252h1.065z"/><path fill="#fff" d="M302.616 391.133v9.816l9.315-4.844zM302.616 391.133l8.165 5.57 1.15-.598z"/></svg>